<svg width="627" height="416" viewBox="0 0 627 416" fill="none" xmlns="http://www.w3.org/2000/svg">
<g clip-path="url(#clip0_1_3)">
<path opacity="0.22" d="M361.53 378.166C507.864 350.66 613.476 259.161 597.419 173.799C581.363 88.4368 449.719 41.5358 303.385 69.0426C157.05 96.5494 51.4391 188.048 67.4954 273.41C83.5517 358.772 215.195 405.673 361.53 378.166Z" fill="#B1BFE2" stroke="white" stroke-miterlimit="10" stroke-linecap="round" stroke-linejoin="round"/>
<path d="M364.033 311.656C468.828 287.873 543.559 223.585 530.951 168.066C518.342 112.547 423.168 86.8203 318.373 110.604C213.578 134.388 138.846 198.676 151.455 254.195C164.063 309.714 259.238 335.44 364.033 311.656Z" fill="#E4F4FB"/>
<path d="M532.447 292.288C532.447 292.288 511.328 251.929 495.192 263.269C479.055 274.609 513.845 296.131 521.408 306.408C528.96 316.684 532.447 292.288 532.447 292.288Z" fill="#277675"/>
<path d="M522.44 300.069C522.44 300.069 504.777 266.196 495.771 262.932" stroke="#62A88E" stroke-miterlimit="10"/>
<path d="M102.874 316.684C102.874 316.684 81.8508 294.204 78.3855 264.364C74.9097 234.534 45.0911 205.052 40.4251 180.655C35.7696 156.259 42.2894 141.349 59.0683 146.94C75.8471 152.531 90.7616 242.536 86.0956 260.626C81.4295 278.715 102.874 316.684 102.874 316.684Z" fill="#97C7BB"/>
<path d="M71.002 190.584C71.002 190.584 67.8632 97.4099 98.6191 100.906C129.375 104.401 99.1985 178.276 97.0497 204.241C94.8905 230.207 71.002 190.584 71.002 190.584Z" fill="#277675"/>
<path d="M96.8918 308.861C96.8918 308.861 78.4909 284.18 78.3539 254.15C78.217 224.121 51.8427 191.511 49.9152 166.746C47.9877 141.981 56.1296 127.882 72.1817 135.305C88.2338 142.718 93.0683 233.818 86.4326 251.286C79.7969 268.744 96.8918 308.861 96.8918 308.861Z" fill="#93C4B8"/>
<path d="M44.4381 185.383C44.4381 185.383 14.2825 160.281 16.1469 181.045C18.0112 201.809 68.3793 225.805 78.3434 256.793" fill="#277675"/>
<path d="M139.676 180.297C139.676 180.297 169.832 155.195 167.967 175.959C166.103 196.723 115.735 220.72 105.771 251.707" fill="#277675"/>
<path d="M335.198 386.01C485.85 386.01 607.978 377.991 607.978 368.099C607.978 358.208 485.85 350.189 335.198 350.189C184.545 350.189 62.4177 358.208 62.4177 368.099C62.4177 377.991 184.545 386.01 335.198 386.01Z" fill="#EDA09A"/>
<path d="M564.235 366.583C564.235 373.764 467.037 379.587 347.131 379.587C227.225 379.587 130.028 373.764 130.028 366.583C130.028 359.402 227.225 360.234 347.131 360.234C425.011 360.244 564.235 359.402 564.235 366.583Z" fill="#F9AD93"/>
<path d="M287.431 78.4676C287.431 78.4676 288.105 90.9344 282.091 94.9461L302.735 104.349C302.735 104.349 299.828 96.7255 302.735 94.1353C302.746 94.1353 289.559 84.4062 287.431 78.4676Z" fill="#FABBA1"/>
<path d="M248.554 132.81C248.554 132.81 151.568 77.9938 230.922 207.61C230.922 207.6 250.956 136.463 248.554 132.81Z" fill="url(#paint0_linear_1_3)"/>
<path d="M232.007 264.785L203.368 369.9H209.088L245.089 266.101" fill="#6E687B"/>
<path d="M232.007 264.785L203.368 369.9H209.088L245.089 266.101" stroke="white" stroke-miterlimit="10"/>
<path d="M236.031 117.932C236.031 117.932 182.092 105.802 189.36 149.741C189.36 149.741 200.061 194.923 198.376 201.324C194.584 303.47 324.823 266.259 333.502 269.755L333.965 260.721L236.031 117.932Z" fill="#EE6C5C"/>
<path d="M355.81 266.722L384.449 371.837H378.73L342.729 268.039" fill="#6E687B"/>
<path d="M355.81 266.722L384.449 371.837H378.73L342.729 268.039" stroke="white" stroke-miterlimit="10"/>
<path d="M145.375 222.32L121.96 371.837H127.89L153.843 272.893C153.843 272.893 181.85 247.548 192.846 227.343C192.846 227.343 151.21 223.194 145.375 222.32Z" fill="#283035"/>
<path d="M496.013 220.383L519.428 369.9H513.498L487.545 270.955C487.545 270.955 459.538 245.611 448.542 225.405C448.542 225.405 490.178 221.257 496.013 220.383Z" fill="#283035"/>
<path d="M316.007 59.0514C323.622 62.2523 329.752 57.0824 329.752 57.0824C336.841 50.1435 329.183 47.3427 329.183 47.3427C330.258 34.897 318.798 40.2354 318.798 40.2354L319.093 41.6885C318.967 40.9093 318.798 40.2354 318.598 39.6352C316.081 32.0962 308.623 38.1716 308.623 38.1716L309.982 39.909C309.297 38.9297 308.623 38.1716 307.97 37.582C303.441 33.465 300.123 37.8979 300.123 37.8979" fill="black"/>
<path d="M316.007 59.0514C323.622 62.2523 329.752 57.0824 329.752 57.0824C336.841 50.1435 329.183 47.3427 329.183 47.3427C330.258 34.897 318.798 40.2354 318.798 40.2354L319.093 41.6885C318.967 40.9093 318.798 40.2354 318.598 39.6352C316.081 32.0962 308.623 38.1716 308.623 38.1716L309.982 39.909C309.297 38.9297 308.623 38.1716 307.97 37.582C303.441 33.465 300.123 37.8979 300.123 37.8979" stroke="black" stroke-miterlimit="10"/>
<path d="M305.348 43.1941C304.652 41.2146 303.736 39.8142 302.693 38.835C302.293 38.4664 300.945 37.6241 300.681 37.5083C295.763 35.4129 289.664 39.751 289.664 39.751L291.655 40.2986L292.213 40.5407C291.813 40.3723 291.444 40.2249 291.086 40.109C290.939 40.0669 290.802 40.0248 290.665 39.9827C290.149 39.8353 289.675 39.751 289.232 39.7089C283.766 39.214 284.092 46.2582 284.092 46.2582L286.146 47.0689C285.04 46.553 284.092 46.2582 283.281 46.1318C277.615 45.2579 278.731 52.8075 278.731 52.8075L279.532 52.3547C279.1 52.5758 278.731 52.8075 278.404 53.0497C274.623 55.9031 278.436 59.8938 278.436 59.8938L280.09 58.6618C279.131 59.262 278.436 59.8937 277.941 60.5255C274.707 64.6951 280.09 69.3281 280.09 69.3281C280.09 69.3281 292.034 71.4761 292.982 63.0631C293.94 54.6606 295.457 57.9985 300.155 55.2398C300.155 55.2398 305.79 57.1245 310.203 56.7876C314.627 56.4506 317.092 59.4305 317.092 59.4305" fill="black"/>
<path d="M305.348 43.1941C304.652 41.2146 303.736 39.8142 302.693 38.835C302.293 38.4664 300.945 37.6241 300.681 37.5083C295.763 35.4129 289.664 39.751 289.664 39.751L291.655 40.2986L292.213 40.5407C291.813 40.3723 291.444 40.2249 291.086 40.109C290.939 40.0669 290.802 40.0248 290.665 39.9827C290.149 39.8353 289.675 39.751 289.232 39.7089C283.766 39.214 284.092 46.2582 284.092 46.2582L286.146 47.0689C285.04 46.553 284.092 46.2582 283.281 46.1318C277.615 45.2579 278.731 52.8075 278.731 52.8075L279.532 52.3547C279.1 52.5758 278.731 52.8075 278.404 53.0497C274.623 55.9031 278.436 59.8938 278.436 59.8938L280.09 58.6618C279.131 59.262 278.436 59.8937 277.941 60.5255C274.707 64.6951 280.09 69.3281 280.09 69.3281C280.09 69.3281 292.034 71.4761 292.982 63.0631C293.94 54.6606 295.457 57.9985 300.155 55.2398C300.155 55.2398 305.79 57.1245 310.203 56.7876C314.627 56.4506 317.092 59.4305 317.092 59.4305" stroke="black" stroke-miterlimit="10"/>
<path d="M285.514 78.436C285.514 78.436 322.664 128.798 324.022 58.0932C324.022 58.0932 318.356 60.9572 311.825 54.0079C311.825 54.0079 298.765 58.704 291.571 51.1439C291.571 51.1439 296.184 66.4957 285.493 65.8745C285.493 65.8639 291.571 71.2339 285.514 78.436Z" fill="#FABBA1"/>
<path d="M285.448 78.9025C288.15 78.489 289.87 75.0782 289.29 71.2843C288.709 67.4904 286.047 64.75 283.344 65.1635C280.642 65.5771 278.922 68.9879 279.503 72.7818C280.083 76.5757 282.745 79.316 285.448 78.9025Z" fill="#F8A084"/>
<path d="M349.227 349.104C349.227 349.104 353.651 354.79 363.858 350.536C384.007 341.313 405.81 361.961 376.55 371.342C347.289 380.724 313.342 377.418 311.783 368.584C310.224 359.749 320.304 346.251 320.304 346.251C320.304 346.251 330.837 364.572 349.227 349.104Z" fill="#83B2DF" stroke="#F7F7F7" stroke-miterlimit="10"/>
<path d="M160.595 223.278C160.595 223.278 146.976 232.639 140.435 272.766C133.894 312.894 132.64 321.77 129.628 339.849C126.605 357.917 128.933 360.16 128.933 360.16C128.933 360.16 150.22 266.849 151.21 264.448C152.2 262.047 174.487 242.347 186.748 225.3L160.595 223.278Z" fill="#474C54"/>
<path d="M248.554 132.81C248.554 132.81 151.568 77.9938 230.922 207.61C230.922 207.6 250.956 136.463 248.554 132.81Z" fill="#D3543B"/>
<path d="M314.564 197.555L313.584 198.987L347.669 202.62H413.847L413.815 201.019" fill="#444345"/>
<path d="M311.994 70.0336L313.827 77.4252L310.182 79.9522" fill="#F8A084"/>
<path d="M321.199 347.556C320.431 347.651 332.522 363.287 349.227 349.094C349.227 349.104 321.958 347.462 321.199 347.556Z" fill="white"/>
<path d="M255.496 177.065L250.556 178.139C252.199 177.707 253.852 177.349 255.496 177.065Z" fill="#83B2DF" stroke="white" stroke-miterlimit="10"/>
<path d="M256.981 176.391C256.949 176.475 256.896 176.549 256.833 176.612C256.728 176.738 256.57 176.823 256.401 176.865L255.822 176.991L255.833 176.98C256.117 176.454 266.829 156.417 262.858 132.041C267.134 151.973 258.329 173.295 256.981 176.391Z" fill="#83B2DF" stroke="white" stroke-miterlimit="10"/>
<path d="M293.161 180.181C292.097 181.066 291.286 182.119 290.686 183.288C290.665 183.161 290.675 183.014 290.728 182.877C291.023 182.066 291.56 180.908 292.361 180.108C292.824 179.644 292.54 178.844 291.887 178.728C287.347 177.939 277.709 176.391 269.273 175.928C280.027 175.949 289.137 177.854 292.803 178.76C293.456 178.918 293.667 179.75 293.161 180.181Z" fill="#83B2DF" stroke="white" stroke-miterlimit="10"/>
<path d="M329.921 146.803L324.243 161.776C325.539 158.049 327.319 153.205 329.921 146.803Z" fill="#83B2DF" stroke="white" stroke-miterlimit="10"/>
<path d="M99.1985 319.948C99.1985 319.948 81.6823 243 94.5429 202.43C107.404 161.86 136.485 162.281 141.151 157.638C145.806 152.995 163.523 171.252 135.558 208.253C107.593 245.253 113.186 261.121 113.186 267.628C113.186 274.135 101.063 274.44 99.1985 319.948Z" fill="#93C4B8"/>
<path d="M82.1458 310.167H122.76C128.132 310.167 131.966 315.379 130.365 320.507L119.759 354.474C118.495 358.528 114.84 361.361 110.595 361.582L96.9234 362.277C92.4048 362.508 88.2759 359.739 86.7802 355.475L74.6042 320.833C72.761 315.621 76.6265 310.167 82.1458 310.167Z" fill="#F5866A"/>
<path d="M102.432 358.749C101.958 364.256 116.441 361.54 117.104 358.749C120.506 357.043 137.264 315.273 128.069 312.199C122.581 310.704 102.906 353.253 102.432 358.749Z" fill="#F9B096"/>
<path d="M82.1668 262.132C82.1668 262.132 59.8161 176.644 53.3911 169.789" stroke="#64A392" stroke-miterlimit="10"/>
<path d="M99.0089 310.493C99.0089 310.493 94.8695 188.31 130.028 180.529" stroke="#64A392" stroke-miterlimit="10"/>
<path d="M90.6984 195.028C90.6984 195.028 87.981 116.9 97.608 101.853" stroke="#62A88E" stroke-miterlimit="10"/>
<path d="M548.446 353C548.446 353 535.017 342.018 532.805 327.456C530.582 312.883 511.528 298.49 508.558 286.581C505.588 274.672 509.748 267.386 520.471 270.113C531.193 272.84 540.715 316.79 537.734 325.624C534.743 334.458 548.446 353 548.446 353Z" fill="#97C7BB"/>
<path d="M528.086 291.414C528.086 291.414 526.085 245.906 545.728 247.622C565.383 249.338 546.097 285.401 544.728 298.079C543.348 310.767 528.086 291.414 528.086 291.414Z" fill="#277675"/>
<path d="M544.612 349.178C544.612 349.178 532.857 337.132 532.773 322.465C532.689 307.798 515.836 291.877 514.604 279.789C513.372 267.691 518.575 260.815 528.834 264.437C539.093 268.06 542.179 312.546 537.934 321.075C533.7 329.583 544.612 349.178 544.612 349.178Z" fill="#93C4B8"/>
<path d="M571.955 286.391C571.955 286.391 591.22 274.135 590.03 284.275C588.839 294.415 556.662 306.134 550.3 321.265" fill="#277675"/>
<path d="M546.097 354.59C546.097 354.59 534.901 317.011 543.116 297.205C551.332 277.389 569.912 277.599 572.893 275.335C575.873 273.072 587.186 281.979 569.322 300.048C551.458 318.116 555.029 325.866 555.029 329.046C555.029 332.226 547.287 332.373 546.097 354.59Z" fill="#93C4B8"/>
<path d="M535.196 349.81H561.138C564.572 349.81 567.015 352.358 565.994 354.864L559.221 371.458C558.41 373.438 556.072 374.828 553.365 374.933L544.633 375.27C541.747 375.386 539.114 374.027 538.155 371.943L530.372 355.022C529.202 352.474 531.678 349.81 535.196 349.81Z" fill="#F5866A"/>
<path d="M548.162 373.543C547.856 376.228 557.114 374.901 557.536 373.543C559.716 372.711 570.417 352.316 564.54 350.81C561.033 350.073 548.456 370.847 548.162 373.543Z" fill="#F9B096"/>
<path d="M545.971 349.968C545.971 349.968 543.327 290.298 565.783 286.497" stroke="#64A392" stroke-miterlimit="10"/>
<path d="M537.881 338.048C537.881 338.048 540.525 278.378 518.069 274.577" stroke="#64A392" stroke-miterlimit="10"/>
<path d="M540.199 293.077C540.199 293.077 538.461 254.919 544.612 247.569" stroke="#62A88E" stroke-miterlimit="10"/>
<path d="M233.208 232.849C233.208 232.849 221.274 283.201 338.126 257.888Z" fill="#D3543B"/>
<path d="M287.221 291.414C287.357 294.373 287.326 297.289 287.126 300.122C285.609 322.054 274.549 338.817 262.036 327.203C247.912 314.094 269.346 263.416 277.425 263.163C279.963 263.079 282.554 263.89 284.903 265.027C290.033 267.512 294.056 271.576 294.056 271.576C294.056 271.576 272.485 277.978 287.315 297.289" fill="#83B2DF"/>
<path d="M287.221 291.414C287.357 294.373 287.326 297.289 287.126 300.122C285.609 322.054 274.549 338.817 262.036 327.203C247.912 314.094 269.346 263.416 277.425 263.163C279.963 263.079 282.554 263.89 284.903 265.027C290.033 267.512 294.056 271.576 294.056 271.576C294.056 271.576 272.485 277.978 287.315 297.289" stroke="#F7F7F7" stroke-miterlimit="10"/>
<path d="M275.097 205.115C316.892 202.662 380.131 208.074 380.131 208.074C380.131 208.074 405.736 204.989 395.572 234.039C395.572 234.039 390.853 249.433 377.108 279.884C363.373 310.325 316.618 312.094 296.763 306.797C276.909 301.501 290.696 258.731 313.574 261.384C336.462 264.027 377.972 245.432 372.01 234.829C372.01 234.829 369.988 227.121 362.088 220.193C362.088 220.193 347.574 208.211 323.98 208.348C306.991 207.705 271.411 206.031 271.411 206.031L275.097 205.115Z" fill="#14426F" stroke="white" stroke-miterlimit="10"/>
<path d="M242.171 205.526C242.171 205.526 228.152 254.308 264.343 260.163C264.343 260.163 292.466 264.648 326.245 255.782C331.069 254.519 336.009 252.982 341.001 251.118L331.069 254.519C331.069 254.519 332.87 281.895 309.182 315.884C309.182 315.884 295.584 334.1 320.294 346.24C345.004 358.381 381.511 345.703 377.887 295.636C374.264 245.569 384.944 208.937 316.038 208.063L270.463 206.231" fill="#16406D"/>
<path d="M242.171 205.526C242.171 205.526 228.152 254.308 264.343 260.163C264.343 260.163 292.466 264.648 326.245 255.782C331.069 254.519 336.009 252.982 341.001 251.118L331.069 254.519C331.069 254.519 332.87 281.895 309.182 315.884C309.182 315.884 295.584 334.1 320.294 346.24C345.004 358.381 381.511 345.703 377.887 295.636C374.264 245.569 384.944 208.937 316.038 208.063L270.463 206.231" stroke="white" stroke-miterlimit="10"/>
<path d="M103.412 208.063V224.5C103.412 224.5 223.002 251.423 534.88 224.5V208.063" fill="#3E4144"/>
<path d="M319.146 220.383C438.292 220.383 534.88 214.867 534.88 208.063C534.88 201.259 438.292 195.744 319.146 195.744C199.999 195.744 103.412 201.259 103.412 208.063C103.412 214.867 199.999 220.383 319.146 220.383Z" fill="#5F6D7A"/>
<path d="M329.362 110.909C313.995 100.274 286.115 94.4512 283.45 93.9142C283.313 93.8826 283.176 93.8931 283.039 93.9352L254.874 102.938C254.832 102.959 254.79 102.959 254.748 102.969C253.484 103.159 231.491 106.928 232.471 146.593C232.471 146.593 231.976 178.097 231.333 185.383C231.333 185.393 231.333 185.393 231.333 185.404C231.249 186.004 226.077 223.215 283.176 204.42C283.218 204.409 283.25 204.388 283.292 204.378C283.639 204.188 286.041 203.02 290.37 202.219C290.865 202.125 291.181 201.63 291.023 201.145C290.075 198.313 287.537 189.374 290.686 183.298C290.749 183.624 291.012 183.909 291.37 183.972L301.819 185.836C303.346 186.109 304.905 185.825 306.243 185.046C307.233 184.456 308.455 183.772 309.582 183.203C311.404 182.298 312.921 180.95 314.364 179.497C316.186 177.654 319.304 177.044 320.536 171.558L324.222 161.839C322.748 166.072 321.884 168.862 321.115 170.863C320.905 171.421 320.599 171.926 320.715 172.611L320.778 172.99C321.357 176.37 324.222 178.813 327.646 179.055C331.522 179.329 334.229 180.939 335.914 182.403C336.872 183.224 338.368 182.603 338.484 181.34C339.758 167.946 343.213 120.48 329.362 110.909ZM259.919 176.422C258.455 176.591 256.981 176.801 255.496 177.065L250.556 178.139C252.199 177.707 253.852 177.349 255.496 177.065L255.822 176.991L255.833 176.98C256.117 176.454 266.829 156.417 262.858 132.041C267.134 151.973 258.329 173.295 256.981 176.391C256.949 176.475 256.896 176.549 256.833 176.612C259.688 175.759 264.248 175.654 269.241 175.928C266.239 175.917 263.1 176.064 259.919 176.422ZM293.161 180.181C292.097 181.066 291.286 182.119 290.686 183.288C290.665 183.161 290.675 183.014 290.728 182.877C291.023 182.066 291.56 180.908 292.361 180.108C292.824 179.644 292.54 178.844 291.887 178.728C287.347 177.939 277.709 176.391 269.273 175.928C280.027 175.949 289.137 177.854 292.803 178.76C293.456 178.918 293.667 179.75 293.161 180.181ZM324.243 161.776C325.539 158.049 327.319 153.205 329.921 146.803L324.243 161.776Z" fill="#347AB8"/>
<path d="M255.496 177.065C256.981 176.801 258.455 176.591 259.919 176.422C263.1 176.064 266.239 175.917 269.241 175.928C264.248 175.654 259.688 175.759 256.833 176.612C256.896 176.549 256.949 176.475 256.981 176.391C258.329 173.295 267.134 151.973 262.858 132.041C266.829 156.417 256.117 176.454 255.833 176.98L255.822 176.991L255.496 177.065ZM255.496 177.065L250.556 178.139C252.199 177.707 253.852 177.349 255.496 177.065ZM329.362 110.909C313.995 100.274 286.115 94.4512 283.45 93.9142C283.313 93.8826 283.176 93.8931 283.039 93.9352L254.874 102.938C254.832 102.959 254.79 102.959 254.748 102.969C253.484 103.159 231.491 106.928 232.471 146.593C232.471 146.593 231.976 178.097 231.333 185.383C231.333 185.393 231.333 185.393 231.333 185.404C231.249 186.004 226.077 223.215 283.176 204.42C283.218 204.409 283.25 204.388 283.292 204.378C283.639 204.188 286.041 203.02 290.37 202.219C290.865 202.125 291.181 201.63 291.023 201.145C290.075 198.313 287.537 189.374 290.686 183.298C290.749 183.624 291.012 183.909 291.37 183.972L301.819 185.836C303.346 186.109 304.905 185.825 306.243 185.046C307.233 184.456 308.455 183.772 309.582 183.203C311.404 182.298 312.921 180.95 314.364 179.497C316.186 177.654 319.304 177.044 320.536 171.558L324.222 161.839C322.748 166.072 321.884 168.862 321.115 170.863C320.905 171.421 320.599 171.926 320.715 172.611L320.778 172.99C321.357 176.37 324.222 178.813 327.646 179.055C331.522 179.329 334.229 180.939 335.914 182.403C336.872 183.224 338.368 182.603 338.484 181.34C339.758 167.946 343.213 120.48 329.362 110.909ZM293.161 180.181C292.097 181.066 291.286 182.119 290.686 183.288C290.665 183.161 290.675 183.014 290.728 182.877C291.023 182.066 291.56 180.908 292.361 180.108C292.824 179.644 292.54 178.844 291.887 178.728C287.347 177.939 277.709 176.391 269.273 175.928C280.027 175.949 289.137 177.854 292.803 178.76C293.456 178.918 293.667 179.75 293.161 180.181ZM324.243 161.776C325.539 158.049 327.319 153.205 329.921 146.803L324.243 161.776Z" stroke="white" stroke-miterlimit="10"/>
<path d="M293.129 182.319L306.085 184.772C306.538 184.856 307.012 184.762 307.391 184.488C310.782 182.087 328.446 170.747 341.012 184.625C341.444 185.099 341.654 185.72 341.623 186.362C341.507 189.131 340.991 196.744 338.758 197.039C336.03 197.397 327.34 190.342 317.545 195.775C317.545 195.775 314.954 197.376 309.94 196.06C309.529 195.954 307.454 195.238 306.812 194.965L308.076 195.481C308.076 195.481 306.464 196.512 292.034 197.555C291.086 197.629 290.264 196.923 290.191 195.975C289.959 192.943 289.706 186.594 291.265 183.267C291.581 182.561 292.36 182.182 293.129 182.319Z" fill="#FABBA1"/>
<path d="M340.759 189.026C340.759 189.026 332.68 181.487 326.276 181.034Z" fill="#F8A084"/>
<path d="M340.422 191.585C340.422 191.585 332.68 184.951 325.371 185.404Z" fill="#F8A084"/>
<path d="M339.537 194.986C339.537 194.986 332.006 188.51 325.381 189.026Z" fill="#F8A084"/>
<path d="M290.37 194.933C290.717 196.512 292.213 197.565 293.814 197.397C297.659 197.007 305.411 196.165 305.779 195.702C306.264 195.091 311.467 198.176 316.913 194.901C316.913 194.901 322.6 192.501 327.266 193.385C327.266 193.385 309.529 195.639 305.59 192.532C301.651 189.426 296.626 187.531 294.088 186.836C294.067 186.825 294.035 186.825 294.014 186.815C292.045 186.278 290.096 187.699 290.033 189.732C289.97 191.427 290.022 193.354 290.37 194.933Z" fill="#F8A081"/>
<path d="M316.112 195.649L346.973 197.608L364.31 148.435L429.551 149.183L414.531 201.019H347.321L315.291 197.555L316.112 195.649Z" fill="#BCB8BC"/>
<path d="M366.733 149.72L349.744 199.724L427.255 151.257L366.733 149.72Z" fill="#D8D6D8"/>
<path d="M393.89 176.336C394.04 174.318 392.751 172.578 391.011 172.448C389.27 172.319 387.738 173.85 387.588 175.868C387.438 177.886 388.727 179.627 390.467 179.756C392.208 179.886 393.74 178.354 393.89 176.336Z" fill="white"/>
<path d="M283.45 93.7352C283.45 93.7352 289.201 103.938 301.461 98.2312L300.113 93.7141L286.388 91.6714L283.45 93.7352Z" fill="#FABBA1"/>
<path d="M302.746 94.1353C302.746 94.1353 301.25 95.1988 301.461 98.4102C301.461 98.4102 288.084 87.6281 287.568 86.312" fill="#F8A084"/>
</g>
<defs>
<linearGradient id="paint0_linear_1_3" x1="199.707" y1="164.45" x2="248.751" y2="164.45" gradientUnits="userSpaceOnUse">
<stop stop-color="#EF3A24"/>
<stop offset="1" stop-color="#884838"/>
</linearGradient>
<clipPath id="clip0_1_3">
<rect width="627" height="416" fill="white"/>
</clipPath>
</defs>
</svg>
